<svg width="20" height="16" viewBox="0 0 20 16" fill="none" xmlns="http://www.w3.org/2000/svg">
<path d="M2 14H18V2H2V14ZM2 16C1.45 16 0.979167 15.8042 0.5875 15.4125C0.195833 15.0208 0 14.55 0 14V2C0 1.45 0.195833 0.979167 0.5875 0.5875C0.979167 0.195833 1.45 0 2 0H18C18.55 0 19.0208 0.195833 19.4125 0.5875C19.8042 0.979167 20 1.45 20 2V14C20 14.55 19.8042 15.0208 19.4125 15.4125C19.0208 15.8042 18.55 16 18 16H2ZM10 8C9.71667 8 9.47917 7.90417 9.2875 7.7125C9.09583 7.52083 9 7.28333 9 7C9 6.71667 9.09583 6.47917 9.2875 6.2875C9.47917 6.09583 9.71667 6 10 6C10.2833 6 10.5208 6.09583 10.7125 6.2875C10.9042 6.47917 11 6.71667 11 7C11 7.28333 10.9042 7.52083 10.7125 7.7125C10.5208 7.90417 10.2833 8 10 8ZM10 13C11.35 11.85 12.3542 10.7875 13.0125 9.8125C13.6708 8.8375 14 7.93333 14 7.1C14 5.85 13.5958 4.85417 12.7875 4.1125C11.9792 3.37083 11.05 3 10 3C8.95 3 8.02083 3.37083 7.2125 4.1125C6.40417 4.85417 6 5.85 6 7.1C6 7.93333 6.32917 8.8375 6.9875 9.8125C7.64583 10.7875 8.65 11.85 10 13Z" fill="#FCB426"/>
</svg>
