<svg width="24" height="24" viewBox="0 0 24 24" fill="none" xmlns="http://www.w3.org/2000/svg">
<path d="M8.21999 12.72C8.0793 12.5795 8.00017 12.3889 7.99999 12.19L7.99999 11.81C8.0023 11.6116 8.08111 11.4217 8.21999 11.28L13.36 6.15003C13.4065 6.10316 13.4618 6.06596 13.5227 6.04058C13.5836 6.0152 13.649 6.00213 13.715 6.00213C13.781 6.00213 13.8464 6.0152 13.9073 6.04058C13.9682 6.06596 14.0235 6.10316 14.07 6.15003L14.78 6.86003C14.8266 6.90565 14.8636 6.9601 14.8888 7.0202C14.9141 7.0803 14.9271 7.14484 14.9271 7.21003C14.9271 7.27522 14.9141 7.33975 14.8888 7.39985C14.8636 7.45995 14.8266 7.5144 14.78 7.56003L10.328 11.998L14.78 16.44C14.8269 16.4865 14.8641 16.5418 14.8894 16.6027C14.9148 16.6637 14.9279 16.729 14.9279 16.795C14.9279 16.861 14.9148 16.9264 14.8894 16.9873C14.8641 17.0482 14.8269 17.1035 14.78 17.15L14.07 17.85C14.0235 17.8969 13.9682 17.9341 13.9073 17.9595C13.8464 17.9849 13.781 17.9979 13.715 17.9979C13.649 17.9979 13.5836 17.9849 13.5227 17.9595C13.4618 17.9341 13.4065 17.8969 13.36 17.85L8.21999 12.72Z" fill="#305B53"/>
</svg>
