<svg width="37" height="36" viewBox="0 0 37 36" fill="none" xmlns="http://www.w3.org/2000/svg">
<path d="M29.0716 4.21611C28.911 4.12757 28.7189 4.16059 28.5988 4.29565C28.0631 4.85542 27.2226 4.91248 26.6058 4.87194C26.2937 4.84043 25.9815 4.7924 25.6693 4.74438C25.1726 4.65584 24.6533 4.5763 24.1251 4.5928C23.3402 4.61682 22.1966 4.84943 21.2031 5.84892C21.0515 6.0095 21.0515 6.26462 21.2031 6.41772C21.3637 6.5783 21.6188 6.56929 21.7719 6.41772C22.5808 5.60131 23.5083 5.40921 24.1491 5.39269C24.6053 5.38519 25.0615 5.44822 25.5418 5.52926C25.878 5.58479 26.2066 5.64182 26.5428 5.66583C27.023 5.70635 27.6233 5.68984 28.1921 5.48124C27.3832 7.50574 25.6154 9.14759 23.6133 9.63513C22.9095 9.81072 22.2762 9.81972 21.7479 9.65914C21.1791 9.48355 20.8189 9.22693 20.6118 8.84273C21.5003 8.06686 22.7414 7.49806 24.4941 7.45753C24.7177 7.45002 24.8948 7.27293 24.8858 7.04932C24.8783 6.82571 24.6862 6.65764 24.4776 6.65764C20.7392 6.74618 19.0432 8.9553 18.2583 10.9241C18.0497 9.45936 17.5859 7.68996 16.6014 6.114C16.6014 6.1065 16.6089 6.1065 16.6089 6.0975C16.8806 5.26457 16.7845 4.24108 16.3523 3.3436C15.9921 2.62324 15.4233 1.9584 14.6549 1.39113C12.2462 -0.402277 8.89974 -0.465284 6.52235 1.22305C6.38578 1.3191 6.32275 1.50369 6.37828 1.66276C6.4263 1.83084 6.57788 1.9434 6.75497 1.9509C7.57887 1.95841 8.29923 2.76731 8.65941 3.25505C8.87552 3.55069 9.07511 3.87187 9.28373 4.18402C9.59588 4.68828 9.92456 5.20002 10.3328 5.64876C10.9976 6.39313 12.0691 7.19302 13.5744 7.19302C13.8385 7.19302 14.1267 7.16901 14.4223 7.11348C14.6384 7.07296 14.7825 6.86586 14.742 6.64976C14.6939 6.42615 14.4853 6.28958 14.2692 6.3301C12.6769 6.63475 11.5724 5.83334 10.924 5.11298C10.5639 4.71227 10.2682 4.24855 9.95607 3.76081C9.74747 3.42464 9.53135 3.08848 9.30026 2.77632C8.94008 2.27956 8.4193 1.71979 7.78001 1.40763C9.7805 0.423138 12.2943 0.639247 14.1749 2.03195C14.8397 2.52871 15.3275 3.08847 15.6321 3.69627C15.8723 4.19303 15.9758 4.72129 15.9518 5.21652C14.9673 4.00842 13.6151 2.9834 11.718 2.43112C11.5019 2.36659 11.2858 2.49565 11.2212 2.70276C11.1567 2.91887 11.2858 3.14247 11.4929 3.19952C17.2961 4.88785 17.6565 11.452 17.6323 13.3971C17.4882 13.3491 17.3441 13.3011 17.1926 13.2456C15.4157 12.5972 13.3987 11.8694 12.8466 13.013C12.4624 13.8128 13.0942 14.4852 13.663 15.0705C14.0787 15.5102 14.4959 15.9664 14.5995 16.4707C14.4794 16.6463 14.4074 16.8624 14.4074 17.095V18.087C14.4074 18.3031 14.4719 18.5027 14.5754 18.6708C11.766 21.5117 9.60475 27.4592 9.60475 30.7967C9.60475 33.1498 10.4377 34.6463 12.1425 35.3666C13.6313 35.9984 15.6798 36.0075 17.8497 35.9984H18.3225C20.4355 35.9984 22.421 35.9819 23.8767 35.3666C25.5816 34.6463 26.4145 33.15 26.4145 30.7967C26.4145 27.459 24.2534 21.5115 21.4438 18.6708C21.5474 18.5027 21.6119 18.3031 21.6119 18.087V17.095C21.6119 16.8714 21.5399 16.6628 21.4273 16.4872C21.4754 16.2306 21.708 15.8869 21.9391 15.5582C22.4358 14.8379 23.1232 13.8609 22.3158 12.9244C21.5639 12.06 20.6514 12.6528 19.9866 13.076C19.4658 13.4121 18.9301 13.7483 18.4258 13.6523C18.4573 13.2606 18.5459 12.5792 18.7785 11.8108C19.0186 11.0424 19.4028 10.1855 20.0271 9.43363C20.3468 9.88986 20.8435 10.2185 21.5159 10.4256C21.8445 10.5217 22.1957 10.5697 22.5724 10.5697C22.9566 10.5697 23.3723 10.5142 23.8045 10.4091C26.4533 9.76078 28.6549 7.44814 29.2792 4.6539C29.3198 4.47832 29.2312 4.29372 29.0706 4.21419L29.0716 4.21611ZM18.0095 27.1954C20.01 27.1954 20.01 28.3075 20.01 29.1959C20.01 30.9083 19.2011 31.1574 18.4087 31.1889V31.5971C18.4087 31.8208 18.2331 31.9979 18.008 31.9979C17.7843 31.9979 17.6072 31.8223 17.6072 31.5971V31.1889C16.8149 31.1574 16.0059 30.9083 16.0059 29.1959C16.0059 28.9723 16.1815 28.7952 16.4066 28.7952C16.6303 28.7952 16.8074 28.9708 16.8074 29.1959C16.8074 30.3965 17.136 30.3965 18.008 30.3965C18.8799 30.3965 19.2086 30.3965 19.2086 29.1959C19.2086 28.324 19.2086 27.9953 18.008 27.9953C16.0075 27.9953 16.0075 26.8833 16.0075 25.9948C16.0075 24.2825 16.8164 24.0334 17.6088 24.0018V23.5936C17.6088 23.37 17.7844 23.1929 18.0095 23.1929C18.2331 23.1929 18.4102 23.3685 18.4102 23.5936V24.0018C19.2026 24.0334 20.0115 24.2825 20.0115 25.9948C20.0115 26.2185 19.8359 26.3956 19.6108 26.3956C19.3872 26.3956 19.2101 26.22 19.2101 25.9948C19.2101 24.7942 18.8814 24.7942 18.0095 24.7942C17.1376 24.7942 16.8089 24.7942 16.8089 25.9948C16.8089 26.8668 16.8089 27.1954 18.0095 27.1954ZM20.5068 16.7907C20.6748 16.7907 20.8114 16.9273 20.8114 17.0954V18.0874C20.8114 18.2555 20.6748 18.392 20.5068 18.392H15.5122C15.3442 18.392 15.2076 18.2555 15.2076 18.0874V17.0954C15.2076 16.9273 15.3442 16.7907 15.5122 16.7907H20.5068Z" fill="#731513"/>
<path d="M35.6176 21.5931H30.287C30.0468 20.2169 30.1834 18.7357 31.1274 17.3908C31.5431 17.5349 31.9198 17.5904 32.2484 17.5904C33.2644 17.5904 33.8888 17.0381 34.2009 16.6224C34.393 16.3748 34.5296 16.1017 34.6646 15.8466C34.7367 15.686 34.8162 15.5344 34.9048 15.3903C35.0323 15.1742 35.3055 14.8215 35.6566 14.7825C35.8322 14.766 35.9763 14.631 36.0093 14.4539C36.0408 14.2783 35.9538 14.1012 35.7932 14.0292C34.321 13.2923 32.5276 13.4844 31.3346 14.5094C30.9429 14.8381 30.6698 15.2057 30.5257 15.6065C30.3816 16.0222 30.3891 16.4709 30.5257 16.8626C30.2301 17.2783 29.99 17.7105 29.8128 18.1592C29.3806 16.9661 28.5162 16.6225 27.9714 16.5264C27.6908 16.4784 27.4191 16.4859 27.1625 16.4949C27.0109 16.4949 26.8578 16.5024 26.7138 16.4949C26.4976 16.4784 26.1209 16.4229 25.9379 16.1587C25.8343 16.0147 25.6497 15.9501 25.4742 16.0147C25.3061 16.0702 25.2025 16.2383 25.21 16.4154C25.3136 17.9116 26.274 19.2728 27.5947 19.8011C27.9144 19.9286 28.2265 19.9932 28.5237 19.9932C28.6272 19.9932 28.7233 19.9857 28.8118 19.9692C29.0354 19.9376 29.2441 19.8566 29.4287 19.7455C29.3641 20.3383 29.3806 20.9536 29.4842 21.5945H25.21C24.9864 21.5945 24.8093 21.7701 24.8093 21.9952C24.8093 22.2188 24.9849 22.3959 25.21 22.3959H29.6359C29.804 23.0607 30.0607 23.7481 30.3968 24.4534C29.4529 25.0057 28.812 26.0217 28.812 27.1983C28.812 28.9677 30.2453 30.3994 32.0131 30.3994C33.7825 30.3994 35.2142 28.9662 35.2142 27.1983C35.2142 25.4289 33.781 23.9972 32.0131 23.9972C31.7085 23.9972 31.4128 24.0527 31.1322 24.1338C30.8755 23.6055 30.6444 23.0217 30.4673 22.3974H35.6136C35.8372 22.3974 36.0143 22.2218 36.0143 21.9967C36.0143 21.7731 35.8387 21.596 35.6136 21.596L35.6176 21.5931ZM31.2805 15.8783C31.3765 15.6141 31.5686 15.3575 31.8493 15.1174C32.5862 14.493 33.6337 14.2604 34.6181 14.4615C34.4741 14.6056 34.3465 14.7737 34.2265 14.9733C34.1229 15.1339 34.0344 15.3095 33.9458 15.485C33.8258 15.7177 33.7132 15.9413 33.5691 16.1334C33.209 16.6061 32.5201 17.0533 31.2715 16.5971C31.1919 16.381 31.1994 16.1168 31.279 15.8767L31.2805 15.8783ZM28.6947 19.1754C28.462 19.2159 28.1904 19.1754 27.8948 19.0553C27.1264 18.7432 26.4946 18.0468 26.1974 17.2229C26.3415 17.2544 26.5021 17.2785 26.6702 17.295C26.8382 17.3025 27.0138 17.295 27.1819 17.295C27.4145 17.2875 27.6381 17.2875 27.8377 17.319C28.3495 17.3985 28.9828 17.7512 29.1899 18.9203C29.0698 19.0569 28.8942 19.1529 28.6931 19.1769L28.6947 19.1754Z" fill="#731513"/>
<path d="M10.8057 21.593H6.53151C6.63506 20.9522 6.65157 20.3369 6.58704 19.7441C6.77163 19.8566 6.97872 19.9362 7.20386 19.9677C7.2924 19.9842 7.38845 19.9917 7.492 19.9917C7.78765 19.9917 8.0998 19.9272 8.42098 19.7996C9.74164 19.2713 10.7021 17.9101 10.8057 16.4139C10.8132 16.2383 10.7096 16.0702 10.5415 16.0132C10.3659 15.9487 10.1814 16.0132 10.0778 16.1573C9.89322 16.4214 9.51804 16.4769 9.30193 16.4934C9.15786 16.5009 9.00629 16.4934 8.8532 16.4934C8.59657 16.4859 8.32493 16.4769 8.04428 16.5249C7.4995 16.621 6.63506 16.9647 6.20284 18.1578C6.02726 17.709 5.78715 17.2768 5.48997 16.8611C5.62654 16.4694 5.63405 16.0207 5.48997 15.605C5.3459 15.2043 5.07428 14.8366 4.68106 14.5079C3.48795 13.4829 1.68704 13.2908 0.222501 14.0277C0.0619204 14.0997 -0.0251223 14.2753 0.00639302 14.4524C0.0379087 14.628 0.181981 14.7646 0.35907 14.7811C0.711748 14.8216 0.983383 15.1728 1.11094 15.3889C1.19948 15.5329 1.27902 15.6845 1.35106 15.8451C1.48762 16.1017 1.62269 16.3734 1.81478 16.621C2.12693 17.0367 2.75125 17.589 3.76724 17.589C4.09591 17.589 4.47108 17.5334 4.88832 17.3894C5.83228 18.734 5.96886 20.2153 5.72874 21.5917L0.401139 21.5932C0.177528 21.5932 0.000426463 21.7687 0.000426463 21.9939C0.000426463 22.2175 0.176014 22.3946 0.401139 22.3946H5.5474C5.37181 23.0189 5.1392 23.6027 4.88256 24.1309C4.60191 24.0514 4.30627 23.9944 4.0016 23.9944C2.2322 23.9944 0.800508 25.4276 0.800508 27.1955C0.800508 28.9649 2.23374 30.3966 4.0016 30.3966C5.771 30.3966 7.20269 28.9633 7.20269 27.1955C7.20269 26.0189 6.56186 25.0029 5.6179 24.4506C5.95407 23.7468 6.21071 23.0579 6.37879 22.3931H10.8047C11.0283 22.3931 11.2054 22.2175 11.2054 21.9923C11.2054 21.7687 11.0298 21.5916 10.8047 21.5916L10.8057 21.593ZM8.18085 17.3189C8.38045 17.2873 8.60557 17.2873 8.83667 17.2948C9.00475 17.2948 9.18034 17.3023 9.34841 17.2948C9.5165 17.2783 9.67708 17.2543 9.82116 17.2228C9.52551 18.0467 8.89218 18.7431 8.1238 19.0552C7.82815 19.1753 7.555 19.2158 7.32391 19.1753C7.12431 19.1513 6.94722 19.0552 6.82715 18.9186C7.03575 17.7495 7.66757 17.3984 8.17931 17.3173L8.18085 17.3189ZM4.74713 16.5985C3.4985 17.0547 2.80964 16.606 2.44946 16.1348C2.30539 15.9427 2.19283 15.7191 2.07277 15.4864C1.98423 15.3109 1.89719 15.1338 1.79213 14.9747C1.67207 14.7751 1.54451 14.607 1.40045 14.463C2.38494 14.2634 3.43398 14.4945 4.16932 15.1188C4.44997 15.3589 4.64207 15.6155 4.73812 15.8797C4.81766 16.1198 4.82667 16.3839 4.74563 16.6L4.74713 16.5985Z" fill="#731513"/>
<path d="M8.00367 33.9995C8.00367 36.6664 4.00269 36.6664 4.00269 33.9995C4.00269 31.3312 8.00367 31.3312 8.00367 33.9995Z" fill="#731513"/>
<path d="M32.0159 33.9995C32.0159 36.6664 28.0149 36.6664 28.0149 33.9995C28.0149 31.3312 32.0159 31.3312 32.0159 33.9995Z" fill="#731513"/>
</svg>
