<svg width="36" height="31" viewBox="0 0 36 31" fill="none" xmlns="http://www.w3.org/2000/svg">
<path d="M34.9507 8.34055L27.3374 0.728838C26.3643 -0.242681 24.7895 -0.242681 23.8164 0.727251L18.1537 6.38503L15.5725 6.1993H15.5709C14.9581 6.15485 14.3486 6.339 13.8628 6.71838L9.00032 10.5013C7.46205 11.503 6.97946 14.0446 6.40641 15.6479C5.83014 17.3814 4.90942 18.9799 3.69976 20.3466C2.98223 19.9878 2.11548 20.1259 1.54714 20.6926L0.662918 21.5753C-0.0673268 22.3071 -0.0673268 23.4913 0.662918 24.2232L6.89209 30.4523C7.62392 31.1826 8.80814 31.1826 9.53997 30.4523L10.4226 29.5697C11.0084 28.9855 11.137 28.0854 10.7401 27.3599C11.0179 27.0853 11.3703 26.898 11.7545 26.825C13.1499 26.3662 15.3612 25.7359 16.4089 24.966L17.3614 25.9106L17.3598 25.9122C18.3345 26.8758 19.9029 26.8742 20.8744 25.9074L34.9474 11.8662C35.9157 10.8899 35.9175 9.31686 34.9507 8.34055ZM9.52445 28.6711L8.64181 29.5553V29.5537C8.40686 29.7887 8.02588 29.7887 7.7909 29.5537L1.56174 23.3246C1.32679 23.0896 1.32679 22.7086 1.56174 22.4737L2.44596 21.5894H2.44438C2.68091 21.3561 3.06189 21.3561 3.29686 21.5894L9.52603 27.8186H9.52444C9.75939 28.0551 9.75939 28.4345 9.52445 28.6711ZM13.4836 24.912L11.4786 25.585C10.8881 25.7073 10.342 25.9883 9.8991 26.3978L4.66844 21.1672H4.67002C5.98446 19.6749 6.98613 17.9335 7.61319 16.0446C8.11009 14.7476 8.52282 12.3236 9.78007 11.5028L14.6425 7.71983C14.8807 7.53409 15.1791 7.44361 15.4807 7.46583L18.1921 7.63728C18.2953 7.66903 18.4033 7.67538 18.5096 7.65792L14.095 12.2932C13.9489 12.479 13.8553 12.7012 13.8235 12.9361C13.7918 13.5076 13.8394 15.8825 13.8362 16.727C13.7505 17.8985 15.5332 18.832 16.3476 17.7033C17.6366 16.165 19.0225 14.7966 20.9276 14.2902C21.7103 14.0346 23.8153 13.9013 23.6787 15.0078C22.6818 16.8841 19.5514 19.7036 18.1083 21.2828L16.0573 23.6799H16.0589C15.2715 24.2244 14.4032 24.6403 13.484 24.9118L13.4836 24.912ZM34.0507 10.9662L19.9777 25.0091C19.5015 25.4822 18.7332 25.4838 18.2553 25.0107L17.3552 24.117L19.0475 22.139L22.6113 18.4656C23.4987 17.5655 24.2607 16.5495 24.8751 15.4462C25.1672 14.5842 24.7719 13.6397 23.9528 13.2412C21.4382 12.122 18.5807 13.5333 16.7125 15.4319C16.2728 15.8621 15.7965 16.3828 15.36 16.905C15.3314 16.9654 15.2647 16.9447 15.2203 16.9114C15.1044 16.8209 15.1044 16.7701 15.1044 16.7384C15.106 16.5018 15.1012 16.0081 15.0949 15.4477C15.0869 14.6001 15.0758 13.5618 15.0869 13.0999L19.4272 8.53125L19.4288 8.53284C19.8733 8.07089 19.8923 7.34699 19.4748 6.86123L24.7152 1.62569H24.7137C25.1915 1.15102 25.963 1.15102 26.4392 1.62727L34.0526 9.23899C34.5257 9.71841 34.5253 10.4884 34.0507 10.9662Z" fill="#17D479"/>
<path d="M27.7458 5.77044C27.5157 5.53391 27.1442 5.51327 26.8886 5.72123C26.1107 6.36256 25.0344 6.50069 24.1201 6.07524C23.8772 5.94665 23.5787 5.98951 23.3803 6.1816L16.5224 12.8521C16.278 13.0982 16.2764 13.4934 16.5177 13.7411C16.759 13.9887 17.1543 13.9983 17.4082 13.7617L23.9694 7.38016C25.0473 7.75639 26.2363 7.63256 27.2142 7.0452L29.0319 8.91525H29.0303C28.4668 9.87409 28.3048 11.0187 28.5826 12.0981L26.0458 14.565C25.803 14.8111 25.8014 15.2064 26.0427 15.454C26.2824 15.7017 26.6777 15.7112 26.9317 15.4746L29.751 12.7315V12.7331C29.9336 12.5553 29.9923 12.287 29.9002 12.0489C29.5621 11.0996 29.724 10.0439 30.332 9.24065C30.5368 8.99141 30.5225 8.62631 30.2971 8.39454L27.7458 5.77044Z" fill="#17D479"/>
<path d="M27.0274 10.8292C27.0163 9.71796 26.1115 8.82422 25.0018 8.82422C23.8906 8.82422 22.9873 9.71796 22.9746 10.8292C22.9873 11.9404 23.8906 12.8342 25.0018 12.8342C26.1115 12.8342 27.0163 11.9404 27.0274 10.8292ZM25.0018 11.5864C24.5875 11.5801 24.2573 11.2419 24.2573 10.8292C24.2573 10.4164 24.5875 10.0799 25.0018 10.072C25.4145 10.0799 25.7463 10.4164 25.7463 10.8292C25.7463 11.2419 25.4145 11.5801 25.0018 11.5864Z" fill="#17D479"/>
</svg>
