<svg width="30" height="30" viewBox="0 0 30 30" fill="none" xmlns="http://www.w3.org/2000/svg">
<rect width="30" height="30" rx="8" fill="#EB5757" fill-opacity="0.24"/>
<path d="M12 6C12 5.44772 12.4477 5 13 5H17C17.5523 5 18 5.44772 18 6V7H23C23.5523 7 24 7.44772 24 8C24 8.55228 23.5523 9 23 9H7C6.44772 9 6 8.55228 6 8C6 7.44772 6.44772 7 7 7H12V6Z" fill="#EB5757"/>
<path d="M9 11C9.55228 11 10 11.4477 10 12V22C10 22.5523 10.4477 23 11 23H19C19.5523 23 20 22.5523 20 22V12C20 11.4477 20.4477 11 21 11C21.5523 11 22 11.4477 22 12V22C22 23.6569 20.6569 25 19 25H11C9.34315 25 8 23.6569 8 22V12C8 11.4477 8.44772 11 9 11Z" fill="#EB5757"/>
<path d="M12 14C12 13.4477 12.4477 13 13 13C13.5523 13 14 13.4477 14 14V20C14 20.5523 13.5523 21 13 21C12.4477 21 12 20.5523 12 20V14Z" fill="#EB5757"/>
<path d="M17 13C16.4477 13 16 13.4477 16 14V20C16 20.5523 16.4477 21 17 21C17.5523 21 18 20.5523 18 20V14C18 13.4477 17.5523 13 17 13Z" fill="#EB5757"/>
</svg>
