<svg width="27" height="25" viewBox="0 0 27 25" fill="none" xmlns="http://www.w3.org/2000/svg">
<path d="M12.4996 0C5.60516 0 0 5.60516 0 12.4996C0 19.3941 5.60516 24.9993 12.4996 24.9993C14.2423 24.9993 15.9655 24.6344 17.5591 23.929C17.6525 23.8915 17.7375 23.8356 17.8089 23.7646C17.8803 23.6935 17.9367 23.6088 17.9747 23.5156C18.0126 23.4223 18.0314 23.3223 18.0299 23.2216C18.0284 23.1209 18.0066 23.0215 17.9659 22.9294C17.9251 22.8373 17.8663 22.7543 17.7928 22.6855C17.7193 22.6166 17.6327 22.5632 17.5381 22.5286C17.4435 22.4939 17.343 22.4786 17.2424 22.4837C17.1418 22.4887 17.0432 22.514 16.9526 22.5579C15.5503 23.1787 14.0332 23.4993 12.4996 23.4993C6.4158 23.4993 1.49996 18.5835 1.49996 12.4996C1.49996 6.4158 6.4158 1.49996 12.4996 1.49996C17.4058 1.49996 21.7122 4.74112 23.0696 9.45578C23.0957 9.55179 23.1406 9.64165 23.2017 9.72015C23.2628 9.79865 23.3389 9.86421 23.4256 9.91302C23.5122 9.96182 23.6078 9.99289 23.7066 10.0044C23.8054 10.016 23.9055 10.0077 24.0011 9.9802C24.0967 9.95268 24.1858 9.90641 24.2634 9.8441C24.3409 9.78179 24.4053 9.70467 24.4527 9.61725C24.5002 9.52982 24.5298 9.43382 24.5398 9.33485C24.5498 9.23588 24.54 9.13591 24.511 9.04075C22.9704 3.69012 18.0676 0 12.4996 0Z" fill="#FF9900"/>
<path d="M19.7489 11.0001C19.6496 10.9987 19.5509 11.017 19.4587 11.0541C19.3664 11.0911 19.2825 11.1462 19.2117 11.2159C19.141 11.2857 19.0848 11.3689 19.0464 11.4606C19.008 11.5523 18.9883 11.6507 18.9883 11.7501C18.9883 11.8494 19.008 11.9478 19.0464 12.0395C19.0848 12.1312 19.141 12.2144 19.2117 12.2842C19.2825 12.3539 19.3664 12.409 19.4587 12.446C19.5509 12.4831 19.6496 12.5014 19.7489 12.5H25.4988V14.4092C25.4988 14.9819 25.2426 15.4182 24.7205 15.9072C24.294 16.3066 23.6449 16.6959 22.9988 17.0907C22.3528 16.6959 21.7037 16.3066 21.2772 15.9072C20.7551 15.4182 20.4989 14.9819 20.4989 14.4092C20.5003 14.3098 20.482 14.2111 20.4449 14.1189C20.4078 14.0267 20.3528 13.9427 20.283 13.8719C20.2133 13.8012 20.1301 13.745 20.0384 13.7066C19.9467 13.6682 19.8483 13.6485 19.7489 13.6485C19.6495 13.6485 19.5511 13.6682 19.4595 13.7066C19.3678 13.745 19.2846 13.8012 19.2148 13.8719C19.1451 13.9427 19.09 14.0267 19.053 14.1189C19.0159 14.2111 18.9976 14.3098 18.999 14.4092C18.999 15.4771 19.5553 16.3495 20.2519 17.0019C20.6754 17.3984 21.1928 17.6841 21.6874 17.9999C21.1928 18.3157 20.6754 18.6013 20.2519 18.9979C19.5553 19.6502 18.999 20.5227 18.999 21.5906V24.2497C18.999 24.4486 19.078 24.6393 19.2186 24.78C19.3593 24.9206 19.55 24.9996 19.7489 24.9997H26.2487C26.3481 25.0011 26.4468 24.9827 26.539 24.9456C26.6312 24.9086 26.7152 24.8536 26.786 24.7838C26.8567 24.714 26.9129 24.6309 26.9513 24.5392C26.9897 24.4475 27.0094 24.3491 27.0094 24.2497C27.0094 24.1503 26.9897 24.0519 26.9513 23.9602C26.9129 23.8685 26.8567 23.7854 26.786 23.7156C26.7152 23.6458 26.6312 23.5908 26.539 23.5537C26.4468 23.5167 26.3481 23.4983 26.2487 23.4997H20.4989V21.5906C20.4989 21.0179 20.7551 20.5815 21.2772 20.0926C21.7037 19.6932 22.3528 19.3038 22.9988 18.909C23.6449 19.3038 24.294 19.6932 24.7205 20.0926C25.2426 20.5815 25.4988 21.0179 25.4988 21.5906C25.4974 21.69 25.5157 21.7886 25.5528 21.8809C25.5898 21.9731 25.6449 22.057 25.7146 22.1278C25.7844 22.1986 25.8676 22.2548 25.9593 22.2931C26.051 22.3315 26.1494 22.3512 26.2487 22.3512C26.3481 22.3512 26.4465 22.3315 26.5382 22.2931C26.6299 22.2548 26.7131 22.1986 26.7829 22.1278C26.8526 22.057 26.9077 21.9731 26.9447 21.8809C26.9818 21.7886 27.0001 21.69 26.9987 21.5906C26.9987 20.5227 26.4424 19.6502 25.7458 18.9979C25.3223 18.6013 24.8049 18.3157 24.3103 17.9999C24.8049 17.6841 25.3223 17.3984 25.7458 17.0019C26.4424 16.3495 26.9987 15.4771 26.9987 14.4092V11.7501C26.9987 11.5512 26.9197 11.3604 26.779 11.2198C26.6384 11.0791 26.4476 11.0001 26.2487 11.0001H19.7489Z" fill="#FF9900"/>
<path d="M12.4873 5.99812C12.3888 5.99953 12.2916 6.02033 12.2011 6.05932C12.1107 6.09832 12.0288 6.15474 11.9601 6.22538C11.8915 6.29602 11.8374 6.37949 11.801 6.47102C11.7646 6.56255 11.7466 6.66036 11.7481 6.75884V7.0352C10.4827 7.24018 9.49812 8.33186 9.49812 9.64743V10.5976C9.49812 12.0587 10.7118 13.2479 12.1768 13.2479H12.8193C13.4911 13.2479 13.998 13.7533 13.998 14.3973V15.3475C13.998 15.9915 13.4911 16.4978 12.8193 16.4978H12.1768C11.505 16.4978 10.9981 15.9915 10.9981 15.3475C10.9995 15.2481 10.9811 15.1494 10.9441 15.0572C10.907 14.965 10.852 14.881 10.7822 14.8103C10.7124 14.7395 10.6293 14.6833 10.5376 14.6449C10.4459 14.6066 10.3475 14.5868 10.2481 14.5868C10.1487 14.5868 10.0503 14.6066 9.95862 14.6449C9.86693 14.6833 9.78378 14.7395 9.714 14.8103C9.64422 14.881 9.5892 14.965 9.55214 15.0572C9.51508 15.1494 9.49672 15.2481 9.49812 15.3475C9.49812 16.663 10.4827 17.7555 11.7481 17.9607V18.237C11.7467 18.3364 11.765 18.4351 11.8021 18.5273C11.8391 18.6195 11.8941 18.7035 11.9639 18.7742C12.0337 18.845 12.1169 18.9012 12.2086 18.9396C12.3002 18.9779 12.3986 18.9977 12.498 18.9977C12.5974 18.9977 12.6958 18.9779 12.7875 18.9396C12.8792 18.9012 12.9624 18.845 13.0321 18.7742C13.1019 18.7035 13.1569 18.6195 13.194 18.5273C13.2311 18.4351 13.2494 18.3364 13.248 18.237V17.9607C14.5133 17.7555 15.4979 16.663 15.4979 15.3475V14.3973C15.4979 12.9362 14.2842 11.748 12.8193 11.748H12.1768C11.505 11.748 10.9981 11.2416 10.9981 10.5976V9.64743C10.9981 9.00342 11.505 8.49805 12.1768 8.49805H12.8193C13.4911 8.49805 13.998 9.00342 13.998 9.64743C13.9966 9.74681 14.0149 9.84548 14.052 9.9377C14.0891 10.0299 14.1441 10.1139 14.2139 10.1846C14.2836 10.2554 14.3668 10.3116 14.4585 10.35C14.5502 10.3883 14.6486 10.4081 14.748 10.4081C14.8474 10.4081 14.9458 10.3883 15.0374 10.35C15.1291 10.3116 15.2123 10.2554 15.2821 10.1846C15.3519 10.1139 15.4069 10.0299 15.4439 9.9377C15.481 9.84548 15.4994 9.74681 15.4979 9.64743C15.4979 8.33186 14.5133 7.24018 13.248 7.0352V6.75884C13.2494 6.65855 13.2308 6.55898 13.193 6.46604C13.1553 6.37309 13.0993 6.28866 13.0284 6.21773C12.9575 6.1468 12.873 6.09082 12.7801 6.0531C12.6872 6.01538 12.5876 5.99669 12.4873 5.99812Z" fill="#FF9900"/>
</svg>
