<svg width="16" height="20" viewBox="0 0 16 20" fill="none" xmlns="http://www.w3.org/2000/svg">
<path d="M14 20H2C1.46957 20 0.960859 19.7893 0.585786 19.4142C0.210714 19.0391 0 18.5304 0 18V10C0 9.46957 0.210714 8.96086 0.585786 8.58579C0.960859 8.21071 1.46957 8 2 8V6C2 4.4087 2.63214 2.88258 3.75736 1.75736C4.88258 0.632141 6.4087 0 8 0C9.5913 0 11.1174 0.632141 12.2426 1.75736C13.3679 2.88258 14 4.4087 14 6V8C14.5304 8 15.0391 8.21071 15.4142 8.58579C15.7893 8.96086 16 9.46957 16 10V18C16 18.5304 15.7893 19.0391 15.4142 19.4142C15.0391 19.7893 14.5304 20 14 20ZM11.5 13C11.3674 13 11.2402 13.0527 11.1464 13.1464C11.0527 13.2402 11 13.3674 11 13.5V14.5C11 14.6326 11.0527 14.7598 11.1464 14.8536C11.2402 14.9473 11.3674 15 11.5 15H12.5C12.6326 15 12.7598 14.9473 12.8536 14.8536C12.9473 14.7598 13 14.6326 13 14.5V13.5C13 13.3674 12.9473 13.2402 12.8536 13.1464C12.7598 13.0527 12.6326 13 12.5 13H11.5ZM7.5 13C7.36739 13 7.24021 13.0527 7.14645 13.1464C7.05268 13.2402 7 13.3674 7 13.5V14.5C7 14.6326 7.05268 14.7598 7.14645 14.8536C7.24021 14.9473 7.36739 15 7.5 15H8.5C8.63261 15 8.75979 14.9473 8.85355 14.8536C8.94732 14.7598 9 14.6326 9 14.5V13.5C9 13.3674 8.94732 13.2402 8.85355 13.1464C8.75979 13.0527 8.63261 13 8.5 13H7.5ZM3.5 13C3.36739 13 3.24021 13.0527 3.14645 13.1464C3.05268 13.2402 3 13.3674 3 13.5V14.5C3 14.6326 3.05268 14.7598 3.14645 14.8536C3.24021 14.9473 3.36739 15 3.5 15H4.5C4.63261 15 4.75979 14.9473 4.85355 14.8536C4.94732 14.7598 5 14.6326 5 14.5V13.5C5 13.3674 4.94732 13.2402 4.85355 13.1464C4.75979 13.0527 4.63261 13 4.5 13H3.5ZM8 2C6.93954 2.00132 5.92289 2.42318 5.17303 3.17303C4.42318 3.92289 4.00132 4.93954 4 6V8H12V6C12 4.93913 11.5786 3.92172 10.8284 3.17157C10.0783 2.42143 9.06087 2 8 2Z" fill="#305B53"/>
</svg>
