<svg width="30" height="30" viewBox="0 0 30 30" fill="none" xmlns="http://www.w3.org/2000/svg">
<rect width="30" height="30" rx="8" fill="#0792AD" fill-opacity="0.24"/>
<path d="M19 5H11C7 5 5 7 5 11V24C5 24.55 5.45 25 6 25H19C23 25 25 23 25 19V11C25 7 23 5 19 5Z" stroke="#0792AD" stroke-width="1.5" stroke-linecap="round" stroke-linejoin="round"/>
<path d="M15.91 10.8402L10.72 16.0302C10.52 16.2302 10.33 16.6202 10.29 16.9002L10.01 18.8802C9.91004 19.6002 10.41 20.1002 11.13 20.0002L13.11 19.7202C13.39 19.6802 13.78 19.4902 13.98 19.2902L19.17 14.1002C20.06 13.2102 20.49 12.1702 19.17 10.8502C17.85 9.52015 16.81 9.94015 15.91 10.8402Z" stroke="#0792AD" stroke-width="1.5" stroke-miterlimit="10" stroke-linecap="round" stroke-linejoin="round"/>
<path d="M15.1699 11.5801C15.6099 13.1501 16.8399 14.3901 18.4199 14.8301" stroke="#0792AD" stroke-width="1.5" stroke-miterlimit="10" stroke-linecap="round" stroke-linejoin="round"/>
</svg>
