<svg width="33" height="23" viewBox="0 0 33 23" fill="none" xmlns="http://www.w3.org/2000/svg">
<path d="M7.60352 21.9537C7.89844 21.9537 8.13771 22.188 8.13771 22.4769C8.13771 22.7657 7.89844 23 7.60352 23H4.6933C4.39839 23 4.15911 22.7657 4.15911 22.4769V10.8549C4.15911 10.566 4.39839 10.3317 4.6933 10.3317H11.2385L12.3403 5.80728L12.3459 5.78003L13.118 2.60989C13.1847 2.32789 13.4741 2.15623 13.7607 2.22162L26.99 5.31005C27.278 5.37544 27.4532 5.6588 27.3865 5.93945C27.3197 6.22145 27.0303 6.39311 26.7438 6.32772L14.0319 3.3592L13.5046 5.5253L31.297 9.67901L31.8243 7.51291L29.9142 7.06744C29.6263 7.00205 29.451 6.71868 29.5178 6.43803C29.5845 6.15603 29.8739 5.98437 30.1605 6.04976L32.5894 6.61785C32.8773 6.68325 33.0526 6.96661 32.9858 7.24726L32.2137 10.4174L32.2082 10.4446L30.2342 18.5547C30.1674 18.8367 29.8781 19.0083 29.5915 18.9429L24.5847 17.774V22.4767C24.5847 22.7655 24.3454 22.9998 24.0505 22.9998H10.86C10.5651 22.9998 10.3258 22.7655 10.3258 22.4767C10.3258 22.1879 10.5651 21.9536 10.86 21.9536H23.5163V14.6502H5.2261V21.9536L7.60352 21.9537ZM1.05687 6.16162C1.01236 6.44635 0.741088 6.64116 0.450355 6.5962C0.159611 6.55261 -0.0393175 6.28695 0.00658706 6.00223C0.19856 4.78838 0.706302 3.66584 1.45335 2.72855C2.20039 1.79262 3.18807 1.03787 4.3427 0.559692C5.49733 0.0815102 6.7396 -0.0874281 7.94419 0.041996C9.15167 0.170056 10.3272 0.597847 11.3496 1.30896C11.5889 1.47517 11.6446 1.80214 11.4748 2.03644C11.3051 2.27076 10.9712 2.32525 10.732 2.15905C9.86116 1.5528 8.85956 1.19044 7.83015 1.08006C6.79795 0.969709 5.73791 1.11276 4.7544 1.52009C3.77089 1.92744 2.92787 2.57044 2.28934 3.3715C1.65219 4.17121 1.21957 5.12757 1.05682 6.16293L1.05687 6.16162ZM3.6193 7.02399C3.57478 7.30872 3.30352 7.50353 3.01278 7.45858C2.72204 7.41498 2.52311 7.14933 2.56902 6.86461C2.69839 6.04858 3.03921 5.29248 3.54142 4.66307C4.0422 4.03367 4.70854 3.52553 5.48618 3.20401C6.26381 2.8825 7.09846 2.76942 7.90673 2.85525C8.71912 2.94244 9.50929 3.22853 10.1979 3.70807C10.4372 3.87427 10.4928 4.20125 10.3231 4.43554C10.1534 4.66986 9.8195 4.72436 9.58025 4.55815C9.04329 4.18624 8.42701 3.96146 7.79407 3.89335C7.15693 3.82524 6.50451 3.91379 5.89938 4.16445C5.29425 4.41512 4.77395 4.81157 4.38168 5.30472C3.98937 5.79654 3.72367 6.38507 3.62213 7.02399H3.6193ZM6.18173 7.88772C6.13721 8.17245 5.86594 8.36727 5.57521 8.32231C5.28447 8.27872 5.08554 8.01306 5.13144 7.72834C5.19822 7.31011 5.3735 6.92184 5.63084 6.59896C5.8868 6.27609 6.22902 6.01587 6.62827 5.85105C7.02614 5.6862 7.45459 5.62763 7.86916 5.67258C8.28511 5.71754 8.69131 5.86467 9.04465 6.11125C9.28393 6.27745 9.33957 6.60443 9.16985 6.83872C9.00014 7.07305 8.66626 7.12754 8.42701 6.96133C8.22669 6.82237 7.99297 6.73791 7.7565 6.71203C7.51444 6.6875 7.26822 6.71884 7.04147 6.81284C6.81333 6.90684 6.61857 7.0567 6.46971 7.24335C6.32225 7.42862 6.22209 7.65069 6.18314 7.89047L6.18173 7.88772ZM13.2611 6.54445L12.3389 10.3302H24.0547C24.3496 10.3302 24.5888 10.5645 24.5888 10.8534V16.6992L29.3228 17.8055L31.052 10.6995L13.2596 6.54581L13.2611 6.54445ZM28.2725 6.68477C27.9846 6.61938 27.8093 6.33601 27.8761 6.05537C27.9428 5.77336 28.2322 5.6017 28.5188 5.66709L28.6426 5.69706C28.9305 5.76246 29.1058 6.04582 29.039 6.32647C28.9723 6.60847 28.6829 6.78013 28.3963 6.71474L28.2725 6.68477ZM23.5218 13.6027V11.3767H5.23159V13.6027H23.5218ZM9.30032 21.9523C9.59523 21.9523 9.8345 22.1867 9.8345 22.4755C9.8345 22.7643 9.59523 22.9986 9.30032 22.9986H9.17373C8.87881 22.9986 8.63954 22.7643 8.63954 22.4755C8.63954 22.1867 8.87881 21.9523 9.17373 21.9523H9.30032Z" fill="#0792AD"/>
</svg>
