<svg width="16" height="16" viewBox="0 0 16 16" fill="none" xmlns="http://www.w3.org/2000/svg">
<path d="M3.65869 6.55313V5.10601C3.65869 2.71102 4.38225 0.764648 8.00005 0.764648C11.6178 0.764648 12.3414 2.71102 12.3414 5.10601V6.55313" stroke="#919191" stroke-width="1.2" stroke-linecap="round" stroke-linejoin="round"/>
<path d="M11.618 15.2359H4.38245C1.48821 15.2359 0.764648 14.5124 0.764648 11.6181V10.171C0.764648 7.27678 1.48821 6.55322 4.38245 6.55322H11.618C14.5123 6.55322 15.2358 7.27678 15.2358 10.171V11.6181C15.2358 14.5124 14.5123 15.2359 11.618 15.2359Z" stroke="#919191" stroke-width="1.2" stroke-linecap="round" stroke-linejoin="round"/>
<mask id="path-3-inside-1_95_2041" fill="white">
<path fill-rule="evenodd" clip-rule="evenodd" d="M10.892 10.8945H10.8985H10.892Z"/>
</mask>
<path d="M10.892 9.89449C10.3397 9.89449 9.89199 10.3422 9.89199 10.8945C9.89199 11.4468 10.3397 11.8945 10.892 11.8945V9.89449ZM10.8985 11.8945C11.4508 11.8945 11.8985 11.4468 11.8985 10.8945C11.8985 10.3422 11.4508 9.89449 10.8985 9.89449V11.8945ZM10.892 11.8945H10.8985V9.89449H10.892V11.8945Z" fill="#919191" mask="url(#path-3-inside-1_95_2041)"/>
<mask id="path-5-inside-2_95_2041" fill="white">
<path fill-rule="evenodd" clip-rule="evenodd" d="M7.99697 10.8945H8.00346H7.99697Z"/>
</mask>
<path d="M7.99697 9.89449C7.44468 9.89449 6.99697 10.3422 6.99697 10.8945C6.99697 11.4468 7.44468 11.8945 7.99697 11.8945V9.89449ZM8.00346 11.8945C8.55575 11.8945 9.00346 11.4468 9.00346 10.8945C9.00346 10.3422 8.55575 9.89449 8.00346 9.89449V11.8945ZM7.99697 11.8945H8.00346V9.89449H7.99697V11.8945Z" fill="#919191" mask="url(#path-5-inside-2_95_2041)"/>
<mask id="path-7-inside-3_95_2041" fill="white">
<path fill-rule="evenodd" clip-rule="evenodd" d="M5.10195 10.8945H5.10845H5.10195Z"/>
</mask>
<path d="M5.10195 9.89449C4.54966 9.89449 4.10195 10.3422 4.10195 10.8945C4.10195 11.4468 4.54966 11.8945 5.10195 11.8945V9.89449ZM5.10845 11.8945C5.66073 11.8945 6.10845 11.4468 6.10845 10.8945C6.10845 10.3422 5.66073 9.89449 5.10845 9.89449V11.8945ZM5.10195 11.8945H5.10845V9.89449H5.10195V11.8945Z" fill="#919191" mask="url(#path-7-inside-3_95_2041)"/>
</svg>
