<svg width="46" height="35" viewBox="0 0 46 35" fill="none" xmlns="http://www.w3.org/2000/svg">
<path fill-rule="evenodd" clip-rule="evenodd" d="M17.7081 1.83069C17.7081 0.92328 18.443 0.188354 19.3504 0.188354H21.5409C24.298 0.188354 26.6219 2.04007 27.3361 4.56926H31.7478C32.8666 4.56926 33.8746 5.25085 34.2893 6.28959L37.7937 15.0473C37.8552 15.2033 37.9025 15.3614 37.9353 15.5174H42.3429C43.8559 15.5174 45.0815 16.743 45.0815 18.254V27.0138C45.0815 28.5247 43.8559 29.7503 42.3429 29.7503H40.4747C39.7603 32.2795 37.4365 34.1312 34.6795 34.1312C31.9226 34.1312 29.5985 32.2795 28.8843 29.7503H18.5768C17.8623 32.2795 15.5385 34.1312 12.7815 34.1312C10.0265 34.1312 7.7026 32.2795 6.98633 29.7503H2.92769C1.41674 29.7503 0.191162 28.5247 0.191162 27.0138V19.3503C0.191162 18.4428 0.926088 17.7079 1.8335 17.7079C2.74091 17.7079 3.47583 18.4428 3.47583 19.3503V26.4656H6.98633C7.70281 23.9385 10.0267 22.0868 12.7815 22.0868C15.5386 22.0868 17.8625 23.9385 18.5768 26.4656H24.2779V6.21156C24.2779 4.69857 23.0523 3.47299 21.5414 3.47299H19.3509C18.4435 3.47299 17.7081 2.7381 17.7081 1.83069ZM41.7971 26.4657H40.475C39.7606 23.9386 37.4367 22.0869 34.6798 22.0869C31.9229 22.0869 29.5988 23.9386 28.8846 26.4657H27.5625V18.8022H41.7975L41.7971 26.4657ZM27.5621 15.5175H34.4436L31.3786 7.85399H27.5622L27.5621 15.5175ZM12.7811 30.8467C11.2701 30.8467 10.0445 29.6211 10.0445 28.1081C10.0445 26.5972 11.2701 25.3716 12.7811 25.3716C14.2941 25.3716 15.5196 26.5972 15.5196 28.1081C15.5196 29.6211 14.2941 30.8467 12.7811 30.8467ZM34.6796 25.3715C33.1686 25.3715 31.943 26.5971 31.943 28.1081C31.943 29.6211 33.1686 30.8466 34.6796 30.8466C36.1905 30.8466 37.4161 29.6211 37.4161 28.1081C37.4161 26.5971 36.1905 25.3715 34.6796 25.3715Z" fill="#EBBD86"/>
</svg>
