<svg width="36" height="36" viewBox="0 0 36 36" fill="none" xmlns="http://www.w3.org/2000/svg">
<path d="M18.0001 30.6002C11.0183 30.6002 5.40003 24.9274 5.40003 17.9456C5.40003 11.5637 10.091 6.32731 16.2001 5.45458V0C7.09095 0.927279 0 8.56369 0 17.9456C0 27.9275 8.07278 36.0002 18.0001 36.0002C23.9456 36.0002 29.2365 33.1093 32.5093 28.6365L27.8184 25.8547C25.5274 28.7456 21.982 30.6002 18.0001 30.6002Z" fill="#305B53"/>
<path d="M19.8 0V5.45458C25.9092 6.32731 30.6001 11.5637 30.6001 17.9456C30.6001 19.5819 30.2728 21.1092 29.7274 22.5274L34.4183 25.3092C35.4001 23.0729 36.0002 20.5638 36.0002 17.9456C36.0002 8.61824 28.9092 0.927279 19.8 0Z" fill="#305B53"/>
</svg>
