<svg width="25" height="24" viewBox="0 0 25 24" fill="none" xmlns="http://www.w3.org/2000/svg">
<path d="M5.33325 17C5.88554 17 6.33325 17.4477 6.33325 18C6.33325 18.5523 5.88554 19 5.33325 19C4.78097 19 4.33325 18.5523 4.33325 18C4.33325 17.4477 4.78097 17 5.33325 17ZM19.3333 17C19.8855 17 20.3333 17.4477 20.3333 18C20.3333 18.5523 19.8855 19 19.3333 19H9.33325C8.78097 19 8.33325 18.5523 8.33325 18C8.33325 17.4477 8.78097 17 9.33325 17H19.3333ZM5.33325 13C5.88554 13 6.33325 13.4477 6.33325 14C6.33325 14.5523 5.88554 15 5.33325 15C4.78097 15 4.33325 14.5523 4.33325 14C4.33325 13.4477 4.78097 13 5.33325 13ZM19.3333 13C19.8855 13 20.3333 13.4477 20.3333 14C20.3333 14.5523 19.8855 15 19.3333 15H9.33325C8.78097 15 8.33325 14.5523 8.33325 14C8.33325 13.4477 8.78097 13 9.33325 13H19.3333ZM5.33325 9C5.88554 9 6.33325 9.44772 6.33325 10C6.33325 10.5523 5.88554 11 5.33325 11C4.78097 11 4.33325 10.5523 4.33325 10C4.33325 9.44772 4.78097 9 5.33325 9ZM19.3333 9C19.8855 9 20.3333 9.44772 20.3333 10C20.3333 10.5523 19.8855 11 19.3333 11H9.33325C8.78097 11 8.33325 10.5523 8.33325 10C8.33325 9.44772 8.78097 9 9.33325 9H19.3333ZM5.33325 5C5.88554 5 6.33325 5.44772 6.33325 6C6.33325 6.55228 5.88554 7 5.33325 7C4.78097 7 4.33325 6.55228 4.33325 6C4.33325 5.44772 4.78097 5 5.33325 5ZM19.3333 5C19.8855 5 20.3333 5.44772 20.3333 6C20.3333 6.55228 19.8855 7 19.3333 7H9.33325C8.78097 7 8.33325 6.55228 8.33325 6C8.33325 5.44772 8.78097 5 9.33325 5H19.3333Z" fill="#242424"/>
</svg>
