<svg width="20" height="20" viewBox="0 0 20 20" fill="none" xmlns="http://www.w3.org/2000/svg">
<path d="M15.9501 18.8501C15.2168 19.0668 14.3501 19.1668 13.3335 19.1668H8.33346C7.3168 19.1668 6.45013 19.0668 5.7168 18.8501C5.90013 16.6835 8.12513 14.9751 10.8335 14.9751C13.5418 14.9751 15.7668 16.6835 15.9501 18.8501Z" stroke="#919191" stroke-width="1.5" stroke-linecap="round" stroke-linejoin="round"/>
<path d="M13.3333 2.5H8.33333C4.16667 2.5 2.5 4.16667 2.5 8.33333V13.3333C2.5 16.4833 3.45 18.2083 5.71667 18.85C5.9 16.6833 8.125 14.975 10.8333 14.975C13.5417 14.975 15.7667 16.6833 15.95 18.85C18.2167 18.2083 19.1667 16.4833 19.1667 13.3333V8.33333C19.1667 4.16667 17.5 2.5 13.3333 2.5ZM10.8333 12.6417C9.18333 12.6417 7.85 11.3 7.85 9.65001C7.85 8.00001 9.18333 6.66667 10.8333 6.66667C12.4833 6.66667 13.8167 8.00001 13.8167 9.65001C13.8167 11.3 12.4833 12.6417 10.8333 12.6417Z" stroke="#919191" stroke-width="1.5" stroke-linecap="round" stroke-linejoin="round"/>
<path d="M13.8168 9.65034C13.8168 11.3003 12.4834 12.642 10.8334 12.642C9.18343 12.642 7.8501 11.3003 7.8501 9.65034C7.8501 8.00034 9.18343 6.66699 10.8334 6.66699C12.4834 6.66699 13.8168 8.00034 13.8168 9.65034Z" stroke="#919191" stroke-width="1.5" stroke-linecap="round" stroke-linejoin="round"/>
</svg>
