<svg width="136" height="105" viewBox="0 0 136 105" fill="none" xmlns="http://www.w3.org/2000/svg">
<g filter="url(#filter0_b_491_2261)">
<path d="M60.0989 30H135.099V45H60.0989V30ZM135.099 0V15H60.0989V0H135.099ZM60.0989 60H135.099V75H60.0989V60ZM60.0989 90H105.099V105H60.0989V90ZM45.0989 49.7993C45.0989 44.3382 43.8591 39.9513 40.7158 36.8927C38.2324 34.4093 34.4254 32.7553 29.129 32.0076L22.01 31.0165C19.9417 30.7678 18.7019 30.0232 17.9573 29.2786C17.0479 28.3684 16.7984 27.2903 16.7984 26.5457C16.7984 23.9822 18.8667 21.0846 23.9136 21.0846C26.4809 21.0846 31.3629 20.8351 35.0861 24.5613L44.1894 15.4579C40.1207 11.3892 35.1273 9.37882 28.9459 8.72498V0H16.153V9.61456C7.72476 12.1635 2.81296 18.7096 2.81296 27.0447C2.81296 32.0915 4.13742 36.0634 6.86951 38.8771C9.51767 41.6092 13.4865 43.3479 18.7019 44.0926L25.8171 45.0829C27.7206 45.3323 28.9642 45.9114 29.7089 46.656C30.5344 47.5662 30.8678 48.7251 30.8678 50.1335C30.8678 53.5255 28.1357 55.4291 22.4251 55.4291C17.7078 55.4291 12.3306 54.351 9.26816 51.2924L0 60.5568C4.52881 65.2145 9.88541 67.2714 16.153 67.997V75H28.9459V67.5934C38.1966 65.6471 45.0989 59.5726 45.0989 49.7993Z" fill="white"/>
</g>
<defs>
<filter id="filter0_b_491_2261" x="-4" y="-4" width="143.099" height="113" filterUnits="userSpaceOnUse" color-interpolation-filters="sRGB">
<feFlood flood-opacity="0" result="BackgroundImageFix"/>
<feGaussianBlur in="BackgroundImageFix" stdDeviation="2"/>
<feComposite in2="SourceAlpha" operator="in" result="effect1_backgroundBlur_491_2261"/>
<feBlend mode="normal" in="SourceGraphic" in2="effect1_backgroundBlur_491_2261" result="shape"/>
</filter>
</defs>
</svg>
