<svg width="155" height="126" viewBox="0 0 155 126" fill="none" xmlns="http://www.w3.org/2000/svg">
<path d="M120.787 44.6106C122.974 44.6106 124.731 46.3747 124.731 48.5548C124.731 50.5304 126.284 52.0763 128.253 52.0763C130.228 52.0763 131.774 50.5236 131.774 48.5548C131.774 43.7649 128.676 39.6752 124.302 38.1952L124.315 37.3496C124.315 35.374 122.762 33.8281 120.794 33.8281C118.818 33.8281 117.272 35.3807 117.272 37.3496V38.1952C112.971 39.6752 109.8 43.6922 109.8 48.5548C109.8 54.6133 114.735 59.5487 120.794 59.5487C122.981 59.5487 124.738 61.3128 124.738 63.493C124.738 65.6799 122.974 67.4373 120.794 67.4373C118.607 67.4373 116.849 65.6732 116.849 63.493C116.849 61.5175 115.297 59.9716 113.328 59.9716C111.352 59.9716 109.807 61.5242 109.807 63.493C109.807 68.2829 112.905 72.3727 117.279 73.8526V74.6983C117.279 76.6738 118.832 78.2197 120.8 78.2197C122.776 78.2197 124.322 76.6671 124.322 74.6983V73.8526C128.623 72.3727 131.794 68.3557 131.794 63.493C131.794 57.4345 126.859 52.4991 120.8 52.4991C118.614 52.4991 116.856 50.735 116.856 48.5548C116.843 46.3745 118.673 44.6106 120.787 44.6106Z" fill="white"/>
<path d="M25.6462 71.2485C26.2077 71.2485 26.7759 71.1758 27.3375 71.1098C32.4116 70.1914 35.8671 65.2627 34.8759 60.1886C34.7372 59.4817 34.3804 58.8474 34.1029 58.2131L45.6583 46.3008C46.7881 46.7237 47.9112 47.0738 49.1138 47.0738C49.6754 47.0738 50.2436 47.0011 50.8052 46.9351C53.2695 46.5122 55.4564 45.105 56.8636 43.0568C57.0817 42.6339 57.0817 42.2838 57.2931 41.9336L68.6371 43.0634C69.8329 47.0076 73.427 49.8288 77.5168 49.8288C78.0783 49.8288 78.6465 49.7562 79.2081 49.6901C83.9981 48.8444 87.1694 44.4773 86.8193 39.7533L96.9675 34.752C97.2516 34.9634 97.3903 35.3135 97.7405 35.525C99.3592 36.6547 101.196 37.2163 103.099 37.2163C103.66 37.2163 104.228 37.1437 104.79 37.0776C107.254 36.6547 109.441 35.2475 110.849 33.1993C111.833 31.792 112.19 30.1667 112.328 28.4753L122.404 25.0926C122.899 25.7268 123.388 26.3611 124.095 26.7839C125.714 27.9137 127.551 28.4753 129.381 28.4753C129.942 28.4753 130.511 28.4026 131.072 28.3365C136.146 27.4182 139.602 22.4895 138.611 17.4154C137.692 12.3413 132.83 8.95857 127.689 9.87698C123.322 10.65 120.29 14.3168 120.006 18.5452L110.208 21.8552C108.093 19.3909 104.783 18.0497 101.401 18.6839C96.6106 19.5296 93.4393 23.8967 93.7894 28.6207L83.7799 33.6221C81.6657 31.792 78.8445 30.8736 75.8846 31.3692C72.9247 31.9308 70.5991 33.8335 69.2579 36.3046L58.0658 34.9568C56.7246 30.3716 52.2187 27.4843 47.422 28.33C42.2818 29.2483 38.899 34.177 39.8109 39.3239C39.9496 40.0308 40.3064 40.6651 40.5839 41.2994L29.0284 53.2776C27.4098 52.6434 25.6457 52.2932 23.9543 52.5707C18.8802 53.4891 15.4248 58.4177 16.4159 63.4918C17.1889 68.077 21.1404 71.2485 25.6462 71.2485ZM128.965 16.5633C129.104 16.5633 129.249 16.4906 129.388 16.4906C130.518 16.4906 131.502 17.2636 131.713 18.3934C131.925 19.6619 131.079 20.9304 129.811 21.1418C129.176 21.2806 128.542 21.1418 128.047 20.7917C127.551 20.4415 127.201 19.8733 127.062 19.3117C126.851 18.0432 127.696 16.8408 128.965 16.5633ZM102.676 25.3702C103.945 25.1588 105.213 26.0045 105.424 27.273C105.563 27.9073 105.424 28.5415 105.074 29.0371C104.724 29.5327 104.156 29.8828 103.594 30.0215C102.253 30.2329 101.057 29.3873 100.846 28.1187C100.634 26.8502 101.408 25.6544 102.676 25.3702ZM77.0941 38.0555C77.2329 38.0555 77.3782 37.9828 77.517 37.9828C78.6467 37.9828 79.6312 38.7558 79.8426 39.8856C80.054 41.1541 79.2083 42.4226 77.9398 42.634C76.5986 42.8455 75.4028 41.9998 75.1913 40.7312C74.9799 39.5354 75.8256 38.2669 77.0941 38.0555ZM48.691 35.307C48.8298 35.307 48.9751 35.2343 49.1139 35.2343C50.2436 35.2343 51.2281 36.0073 51.4395 37.1371C51.5782 37.7714 51.4395 38.4056 51.0893 38.9012C50.7392 39.3968 50.171 39.8196 49.5367 39.8856C48.9024 39.9583 48.2682 39.8856 47.7726 39.5355C47.211 39.1853 46.8609 38.6171 46.7882 38.0555C46.5107 36.7143 47.3564 35.5184 48.691 35.307ZM25.2233 59.4817C25.3621 59.4817 25.5074 59.409 25.6462 59.409C26.1417 59.409 26.5645 59.5477 26.9874 59.8318C27.4829 60.182 27.833 60.7502 27.9718 61.3118C28.1832 62.7191 27.3375 63.9216 26.069 64.133C24.7278 64.3444 23.5319 63.4987 23.3205 62.2302C23.043 60.9617 23.8887 59.7592 25.2233 59.4817Z" fill="white"/>
<path d="M151.516 0H3.52142C1.54591 0 0 1.61869 0 3.52142V97.8151C0 99.7906 1.55262 101.337 3.52142 101.337H67.7933V118.957H46.6513C44.6757 118.957 43.1298 120.51 43.1298 122.479C43.1298 124.454 44.6825 126 46.6513 126H108.313C110.289 126 111.835 124.447 111.835 122.479C111.835 120.503 110.282 118.957 108.313 118.957H87.1713V101.337H151.443C153.419 101.337 154.965 99.7839 154.965 97.8151L154.971 3.52142C155.037 1.61864 153.491 0 151.516 0ZM80.1944 118.957H74.9089V101.337H80.1944V118.957ZM147.995 94.2937H7.04285V89.7151H147.988L147.995 94.2937ZM147.995 82.6655H7.04285V7.04961H147.988L147.995 82.6655Z" fill="white"/>
<path d="M94.009 67.3047H43.1953C41.2197 67.3047 39.6738 68.8573 39.6738 70.8261C39.6738 72.8016 41.2265 74.3475 43.1953 74.3475H94.009C95.9845 74.3475 97.5304 72.7949 97.5304 70.8261C97.5304 68.8506 95.9844 67.3047 94.009 67.3047Z" fill="white"/>
<path d="M94.009 56.0977H43.1953C41.2197 56.0977 39.6738 57.6503 39.6738 59.6191C39.6738 61.5946 41.2265 63.1405 43.1953 63.1405H94.009C95.9845 63.1405 97.5304 61.5879 97.5304 59.6191C97.5304 57.6436 95.9844 56.0977 94.009 56.0977Z" fill="white"/>
</svg>
