<svg width="146" height="138" viewBox="0 0 146 138" fill="none" xmlns="http://www.w3.org/2000/svg">
<path d="M115.748 101.145C117.468 101.145 119.1 100.662 120.6 99.9177C122.09 100.676 123.757 101.145 125.551 101.145C131.645 101.145 136.604 96.1867 136.604 90.0925C136.604 83.9983 131.646 79.0398 125.551 79.0398C123.756 79.0398 122.088 79.51 120.596 80.2692C119.095 79.523 117.464 79.0398 115.748 79.0398C109.654 79.0398 104.695 83.9983 104.695 90.0925C104.695 96.1867 109.654 101.145 115.748 101.145ZM125.551 83.0453C129.438 83.0453 132.599 86.2056 132.599 90.0925C132.599 93.9794 129.438 97.1397 125.551 97.1397C121.665 97.1397 118.504 93.9794 118.504 90.0925C118.504 86.2056 121.665 83.0453 125.551 83.0453ZM115.748 83.0453C116.162 83.0453 116.573 83.0995 116.985 83.1837C115.449 85.076 114.499 87.4648 114.499 90.0925C114.499 92.7203 115.449 95.1093 116.985 97.0019C116.574 97.0857 116.163 97.1397 115.748 97.1397C111.861 97.1397 108.701 93.9794 108.701 90.0925C108.701 86.2056 111.861 83.0453 115.748 83.0453Z" fill="white" stroke="white" stroke-width="0.6"/>
<path d="M77.1883 90.0934C77.1883 91.1991 78.0852 92.0961 79.191 92.0961H80.7032C81.8089 92.0961 82.7059 91.1991 82.7059 90.0934C82.7059 88.9876 81.8089 88.0906 80.7032 88.0906H79.191C78.0852 88.0906 77.1883 88.9876 77.1883 90.0934Z" fill="white" stroke="white" stroke-width="0.6"/>
<path d="M85.9869 92.0961H87.4945C88.6002 92.0961 89.4972 91.1991 89.4972 90.0934C89.4972 88.9876 88.6002 88.0906 87.4945 88.0906H85.9869C84.8811 88.0906 83.9842 88.9876 83.9842 90.0934C83.9842 91.1991 84.8811 92.0961 85.9869 92.0961Z" fill="white" stroke="white" stroke-width="0.6"/>
<path d="M92.7799 92.0961H94.292C95.3978 92.0961 96.2947 91.1991 96.2947 90.0934C96.2947 88.9876 95.3978 88.0906 94.292 88.0906H92.7799C91.6741 88.0906 90.7771 88.9876 90.7771 90.0934C90.7771 91.1992 91.6745 92.0961 92.7799 92.0961Z" fill="white" stroke="white" stroke-width="0.6"/>
<path d="M99.5797 92.0961H101.087C102.193 92.0961 103.09 91.1991 103.09 90.0934C103.09 88.9876 102.193 88.0906 101.087 88.0906H99.5797C98.4739 88.0906 97.577 88.9876 97.577 90.0934C97.577 91.1992 98.4743 92.0961 99.5797 92.0961Z" fill="white" stroke="white" stroke-width="0.6"/>
<mask id="path-6-outside-1_491_2277" maskUnits="userSpaceOnUse" x="0" y="0" width="146" height="138" fill="black">
<rect fill="white" width="146" height="138"/>
<path d="M144.73 51.8761L119.975 13.271C119.469 12.4818 118.409 12.2489 117.625 12.759L78.6539 37.7494V9.32042C78.6539 4.73346 74.9204 1 70.3354 1H9.31812C4.73346 1 1 4.73346 1 9.32042V75.2881C1 78.4495 1.54549 81.5712 2.62728 84.564L4.72461 90.3459C5.66896 92.9665 6.14786 95.6978 6.14786 98.4604V128.532C6.14786 133.219 11.5398 136.85 16.1822 136.85H17.8449H62.0658H65.1918C69.4777 136.85 72.9779 133.576 73.4217 129.406H137.405C140.89 129.406 143.728 126.572 143.728 123.087V77.7974C143.728 74.3123 140.89 71.4746 137.405 71.4746H117.317L144.215 54.2263C144.597 53.9826 144.863 53.5965 144.96 53.1576C145.058 52.7187 144.973 52.2529 144.73 51.8761ZM78.6535 51.5776L86.727 46.4005C84.1665 51.014 84.0897 56.8268 87.1317 61.5732C89.2645 64.9032 92.5679 67.2045 96.4342 68.0468C97.494 68.2774 98.5627 68.3926 99.6268 68.3926C99.9784 68.3926 100.325 68.3427 100.674 68.3178L95.752 71.4743H78.6535V51.5776ZM123.646 53.5876L112.47 60.7541C115.031 56.1402 115.106 50.3278 112.064 45.5841C109.023 40.839 103.707 38.4832 98.4486 38.8831L109.621 31.7189C112.113 34.3263 115.984 35.1686 119.331 33.8428L125.765 43.8771C123.158 46.369 122.311 50.2311 123.646 53.5876ZM99.5776 42.1744C103.338 42.1744 107.022 44.0276 109.2 47.42C112.592 52.7141 111.049 59.7822 105.754 63.1785C103.192 64.8192 100.137 65.3732 97.1611 64.7214C94.186 64.0697 91.6406 62.3004 89.9956 59.7376C86.6036 54.4434 88.1512 47.3711 93.4408 43.9745C95.3432 42.7553 97.4714 42.1744 99.5776 42.1744ZM20.4211 133.445L21.5918 130.687C21.9244 129.906 22.6824 129.405 23.5205 129.405H56.3902C57.2283 129.405 57.9863 129.906 58.3189 130.682L59.4896 133.445H20.4211ZM71.7318 89.1887C70.65 92.1684 70.1045 95.2855 70.1045 98.4604V128.532C70.1045 131.241 67.9009 133.445 65.1915 133.445H63.1899L61.4492 129.348C60.5799 127.313 58.5935 126 56.3899 126H23.5205C21.3169 126 19.3304 127.313 18.4612 129.352L16.7208 133.445H16.1822C13.2868 133.445 9.55331 131.064 9.55331 128.532V98.4604C9.55331 95.299 9.00782 92.1818 7.92603 89.1887L5.8287 83.4068C4.88435 80.7863 4.40545 78.0549 4.40545 75.2881V9.32009C4.40545 6.61102 6.60905 4.40479 9.31845 4.40479H70.3354C73.0445 4.40479 75.2484 6.61069 75.2484 9.32009V75.2878C75.2484 78.068 74.7695 80.7948 73.8252 83.4022L71.7318 89.1887ZM73.5099 115.926H130.802V118.644H73.5099V115.926ZM137.405 74.8797C139.014 74.8797 140.322 76.1878 140.322 77.7974V123.087C140.322 124.692 139.014 126 137.405 126H73.5099V122.049H132.505C133.445 122.049 134.208 121.287 134.208 120.346V114.223C134.208 113.283 133.445 112.52 132.505 112.52H73.5099V107.457H106.699C107.639 107.457 108.402 106.694 108.402 105.754C108.402 104.814 107.639 104.051 106.699 104.051H73.5099V98.46C73.5099 95.6844 73.9888 92.9573 74.9332 90.3502L77.0259 84.5637C78.1077 81.584 78.6532 78.4623 78.6532 75.2878V74.8797H137.405ZM111.014 71.4746H102.055L126.776 55.623C127.57 55.1175 127.801 54.0623 127.291 53.2731C125.659 50.7234 126.404 47.3183 128.949 45.6864C129.33 45.4427 129.597 45.0612 129.694 44.6177C129.791 44.1789 129.707 43.7131 129.463 43.3362L121.367 30.708C121.123 30.3265 120.737 30.0605 120.298 29.963C119.854 29.8699 119.393 29.9542 119.016 30.1936C116.458 31.8298 113.066 31.0806 111.43 28.5352C110.924 27.7414 109.864 27.5154 109.08 28.0209L78.6535 47.5361V41.7909L118.028 16.5456L140.943 52.2795L111.014 71.4746Z"/>
</mask>
<path d="M144.73 51.8761L119.975 13.271C119.469 12.4818 118.409 12.2489 117.625 12.759L78.6539 37.7494V9.32042C78.6539 4.73346 74.9204 1 70.3354 1H9.31812C4.73346 1 1 4.73346 1 9.32042V75.2881C1 78.4495 1.54549 81.5712 2.62728 84.564L4.72461 90.3459C5.66896 92.9665 6.14786 95.6978 6.14786 98.4604V128.532C6.14786 133.219 11.5398 136.85 16.1822 136.85H17.8449H62.0658H65.1918C69.4777 136.85 72.9779 133.576 73.4217 129.406H137.405C140.89 129.406 143.728 126.572 143.728 123.087V77.7974C143.728 74.3123 140.89 71.4746 137.405 71.4746H117.317L144.215 54.2263C144.597 53.9826 144.863 53.5965 144.96 53.1576C145.058 52.7187 144.973 52.2529 144.73 51.8761ZM78.6535 51.5776L86.727 46.4005C84.1665 51.014 84.0897 56.8268 87.1317 61.5732C89.2645 64.9032 92.5679 67.2045 96.4342 68.0468C97.494 68.2774 98.5627 68.3926 99.6268 68.3926C99.9784 68.3926 100.325 68.3427 100.674 68.3178L95.752 71.4743H78.6535V51.5776ZM123.646 53.5876L112.47 60.7541C115.031 56.1402 115.106 50.3278 112.064 45.5841C109.023 40.839 103.707 38.4832 98.4486 38.8831L109.621 31.7189C112.113 34.3263 115.984 35.1686 119.331 33.8428L125.765 43.8771C123.158 46.369 122.311 50.2311 123.646 53.5876ZM99.5776 42.1744C103.338 42.1744 107.022 44.0276 109.2 47.42C112.592 52.7141 111.049 59.7822 105.754 63.1785C103.192 64.8192 100.137 65.3732 97.1611 64.7214C94.186 64.0697 91.6406 62.3004 89.9956 59.7376C86.6036 54.4434 88.1512 47.3711 93.4408 43.9745C95.3432 42.7553 97.4714 42.1744 99.5776 42.1744ZM20.4211 133.445L21.5918 130.687C21.9244 129.906 22.6824 129.405 23.5205 129.405H56.3902C57.2283 129.405 57.9863 129.906 58.3189 130.682L59.4896 133.445H20.4211ZM71.7318 89.1887C70.65 92.1684 70.1045 95.2855 70.1045 98.4604V128.532C70.1045 131.241 67.9009 133.445 65.1915 133.445H63.1899L61.4492 129.348C60.5799 127.313 58.5935 126 56.3899 126H23.5205C21.3169 126 19.3304 127.313 18.4612 129.352L16.7208 133.445H16.1822C13.2868 133.445 9.55331 131.064 9.55331 128.532V98.4604C9.55331 95.299 9.00782 92.1818 7.92603 89.1887L5.8287 83.4068C4.88435 80.7863 4.40545 78.0549 4.40545 75.2881V9.32009C4.40545 6.61102 6.60905 4.40479 9.31845 4.40479H70.3354C73.0445 4.40479 75.2484 6.61069 75.2484 9.32009V75.2878C75.2484 78.068 74.7695 80.7948 73.8252 83.4022L71.7318 89.1887ZM73.5099 115.926H130.802V118.644H73.5099V115.926ZM137.405 74.8797C139.014 74.8797 140.322 76.1878 140.322 77.7974V123.087C140.322 124.692 139.014 126 137.405 126H73.5099V122.049H132.505C133.445 122.049 134.208 121.287 134.208 120.346V114.223C134.208 113.283 133.445 112.52 132.505 112.52H73.5099V107.457H106.699C107.639 107.457 108.402 106.694 108.402 105.754C108.402 104.814 107.639 104.051 106.699 104.051H73.5099V98.46C73.5099 95.6844 73.9888 92.9573 74.9332 90.3502L77.0259 84.5637C78.1077 81.584 78.6532 78.4623 78.6532 75.2878V74.8797H137.405ZM111.014 71.4746H102.055L126.776 55.623C127.57 55.1175 127.801 54.0623 127.291 53.2731C125.659 50.7234 126.404 47.3183 128.949 45.6864C129.33 45.4427 129.597 45.0612 129.694 44.6177C129.791 44.1789 129.707 43.7131 129.463 43.3362L121.367 30.708C121.123 30.3265 120.737 30.0605 120.298 29.963C119.854 29.8699 119.393 29.9542 119.016 30.1936C116.458 31.8298 113.066 31.0806 111.43 28.5352C110.924 27.7414 109.864 27.5154 109.08 28.0209L78.6535 47.5361V41.7909L118.028 16.5456L140.943 52.2795L111.014 71.4746Z" fill="white"/>
<path d="M144.73 51.8761L119.975 13.271C119.469 12.4818 118.409 12.2489 117.625 12.759L78.6539 37.7494V9.32042C78.6539 4.73346 74.9204 1 70.3354 1H9.31812C4.73346 1 1 4.73346 1 9.32042V75.2881C1 78.4495 1.54549 81.5712 2.62728 84.564L4.72461 90.3459C5.66896 92.9665 6.14786 95.6978 6.14786 98.4604V128.532C6.14786 133.219 11.5398 136.85 16.1822 136.85H17.8449H62.0658H65.1918C69.4777 136.85 72.9779 133.576 73.4217 129.406H137.405C140.89 129.406 143.728 126.572 143.728 123.087V77.7974C143.728 74.3123 140.89 71.4746 137.405 71.4746H117.317L144.215 54.2263C144.597 53.9826 144.863 53.5965 144.96 53.1576C145.058 52.7187 144.973 52.2529 144.73 51.8761ZM78.6535 51.5776L86.727 46.4005C84.1665 51.014 84.0897 56.8268 87.1317 61.5732C89.2645 64.9032 92.5679 67.2045 96.4342 68.0468C97.494 68.2774 98.5627 68.3926 99.6268 68.3926C99.9784 68.3926 100.325 68.3427 100.674 68.3178L95.752 71.4743H78.6535V51.5776ZM123.646 53.5876L112.47 60.7541C115.031 56.1402 115.106 50.3278 112.064 45.5841C109.023 40.839 103.707 38.4832 98.4486 38.8831L109.621 31.7189C112.113 34.3263 115.984 35.1686 119.331 33.8428L125.765 43.8771C123.158 46.369 122.311 50.2311 123.646 53.5876ZM99.5776 42.1744C103.338 42.1744 107.022 44.0276 109.2 47.42C112.592 52.7141 111.049 59.7822 105.754 63.1785C103.192 64.8192 100.137 65.3732 97.1611 64.7214C94.186 64.0697 91.6406 62.3004 89.9956 59.7376C86.6036 54.4434 88.1512 47.3711 93.4408 43.9745C95.3432 42.7553 97.4714 42.1744 99.5776 42.1744ZM20.4211 133.445L21.5918 130.687C21.9244 129.906 22.6824 129.405 23.5205 129.405H56.3902C57.2283 129.405 57.9863 129.906 58.3189 130.682L59.4896 133.445H20.4211ZM71.7318 89.1887C70.65 92.1684 70.1045 95.2855 70.1045 98.4604V128.532C70.1045 131.241 67.9009 133.445 65.1915 133.445H63.1899L61.4492 129.348C60.5799 127.313 58.5935 126 56.3899 126H23.5205C21.3169 126 19.3304 127.313 18.4612 129.352L16.7208 133.445H16.1822C13.2868 133.445 9.55331 131.064 9.55331 128.532V98.4604C9.55331 95.299 9.00782 92.1818 7.92603 89.1887L5.8287 83.4068C4.88435 80.7863 4.40545 78.0549 4.40545 75.2881V9.32009C4.40545 6.61102 6.60905 4.40479 9.31845 4.40479H70.3354C73.0445 4.40479 75.2484 6.61069 75.2484 9.32009V75.2878C75.2484 78.068 74.7695 80.7948 73.8252 83.4022L71.7318 89.1887ZM73.5099 115.926H130.802V118.644H73.5099V115.926ZM137.405 74.8797C139.014 74.8797 140.322 76.1878 140.322 77.7974V123.087C140.322 124.692 139.014 126 137.405 126H73.5099V122.049H132.505C133.445 122.049 134.208 121.287 134.208 120.346V114.223C134.208 113.283 133.445 112.52 132.505 112.52H73.5099V107.457H106.699C107.639 107.457 108.402 106.694 108.402 105.754C108.402 104.814 107.639 104.051 106.699 104.051H73.5099V98.46C73.5099 95.6844 73.9888 92.9573 74.9332 90.3502L77.0259 84.5637C78.1077 81.584 78.6532 78.4623 78.6532 75.2878V74.8797H137.405ZM111.014 71.4746H102.055L126.776 55.623C127.57 55.1175 127.801 54.0623 127.291 53.2731C125.659 50.7234 126.404 47.3183 128.949 45.6864C129.33 45.4427 129.597 45.0612 129.694 44.6177C129.791 44.1789 129.707 43.7131 129.463 43.3362L121.367 30.708C121.123 30.3265 120.737 30.0605 120.298 29.963C119.854 29.8699 119.393 29.9542 119.016 30.1936C116.458 31.8298 113.066 31.0806 111.43 28.5352C110.924 27.7414 109.864 27.5154 109.08 28.0209L78.6535 47.5361V41.7909L118.028 16.5456L140.943 52.2795L111.014 71.4746Z" stroke="white" stroke-width="1.2" mask="url(#path-6-outside-1_491_2277)"/>
<path d="M119.136 22.8346C118.16 21.3118 116.134 20.8691 114.612 21.8455L114.612 21.8455C113.089 22.8219 112.646 24.8472 113.623 26.37L113.875 26.2081L113.623 26.37C114.599 27.8927 116.625 28.3354 118.147 27.359L118.148 27.359C119.67 26.3827 120.113 24.357 119.136 22.8346ZM119.136 22.8346L118.884 22.9965L119.136 22.8345C119.136 22.8345 119.136 22.8345 119.136 22.8346Z" fill="white" stroke="white" stroke-width="0.6"/>
<path d="M134.602 53.0172L134.602 53.0172C136.124 52.0409 136.567 50.0151 135.59 48.4927C134.614 46.97 132.589 46.5273 131.066 47.5037C129.543 48.4801 129.101 50.5058 130.077 52.0282L130.077 52.0283C131.054 53.5506 133.079 53.9933 134.602 53.0172Z" fill="white" stroke="white" stroke-width="0.6"/>
<path d="M93.344 53.6062L93.3439 53.6062C92.1222 51.7008 92.7192 49.6488 94.1601 48.1762L93.5332 47.1988L93.3712 46.9462L93.6238 46.7843L95.7648 45.4115L96.0173 45.2496L96.1792 45.5021L96.7844 46.4454C97.9633 45.9683 98.991 45.9222 99.8684 46.1731C100.801 46.4397 101.529 47.0318 102.074 47.7265L102.277 47.9861L102 48.1642L99.4442 49.8029L99.2486 49.9284L99.0782 49.7703C98.8525 49.5609 98.6011 49.3421 98.2658 49.2562C97.9474 49.1746 97.5 49.2015 96.8647 49.6087M93.344 53.6062L96.2635 51.3834C96.1152 51.1522 96.0293 50.8675 96.0845 50.5763C96.1384 50.2915 96.3375 49.9467 96.8647 49.6087M93.344 53.6062C93.9194 54.5035 94.6543 55.1243 95.7368 55.3604C96.7988 55.592 98.1598 55.445 99.9778 54.9027L99.9785 54.9025C100.963 54.6063 101.588 54.5092 102.023 54.5688C102.421 54.6233 102.679 54.8123 102.926 55.198L102.926 55.198C103.126 55.5088 103.204 55.8304 103.119 56.152C103.032 56.4787 102.76 56.8659 102.131 57.2693L102.131 57.2693C101.64 57.5844 101.163 57.7021 100.732 57.664C100.302 57.6261 99.8914 57.4309 99.5343 57.0766L99.3635 56.9072L99.161 57.037L96.6078 58.6741L96.3341 58.8496L96.531 59.1083C97.198 59.985 98.0742 60.5652 99.0944 60.7855C100.044 60.9905 101.099 60.8791 102.2 60.4338M93.344 53.6062L102.2 60.4338M96.8647 49.6087L96.7028 49.3562M96.8647 49.6087L96.7028 49.3562M96.7028 49.3562C95.5465 50.0975 95.6548 50.99 96.011 51.5454L96.6687 46.8206C98.9741 45.7916 100.6 46.497 101.645 47.6792L101.676 47.6591L101.838 47.9116L101.602 48.0967C101.596 48.0892 101.59 48.0818 101.584 48.0743L99.2823 49.5504C98.8323 49.1328 98.0801 48.4732 96.7028 49.3562ZM102.2 60.4338L102.993 61.6707L103.155 61.9233L103.408 61.7613L105.564 60.3784L105.816 60.2165L105.655 59.964L104.858 58.7217C105.678 57.9535 106.247 57.0772 106.459 56.1266C106.688 55.0961 106.492 54.0129 105.803 52.9382L105.803 52.9382C105.156 51.9296 104.362 51.2815 103.292 51.0327C102.239 50.7878 100.959 50.9396 99.3547 51.433C98.2141 51.7801 97.5314 51.9161 97.0821 51.8882C96.8676 51.8749 96.7193 51.8245 96.6024 51.7497C96.4831 51.6734 96.3757 51.5583 96.2635 51.3834L102.2 60.4338Z" fill="white" stroke="white" stroke-width="0.6"/>
<path d="M63.0424 15.1805H16.8707C15.7649 15.1805 14.868 16.0774 14.868 17.1832V58.9608C14.868 60.0666 15.7649 60.9635 16.8707 60.9635H63.0424C64.1481 60.9635 65.0451 60.0666 65.0451 58.9608V17.1832C65.0451 16.0774 64.1481 15.1805 63.0424 15.1805ZM61.04 56.9584H18.8734V19.1859H61.04V56.9584Z" fill="white" stroke="white" stroke-width="0.6"/>
<path d="M29.1029 70.9488V70.9487C29.1025 69.843 28.2056 68.9461 27.0998 68.9461H16.8707C15.7649 68.9461 14.868 69.843 14.868 70.9488V81.1783C14.868 82.2841 15.7649 83.181 16.8707 83.181H27.1002C28.2059 83.181 29.1029 82.2841 29.1029 81.1783V70.9488ZM25.0974 79.1756H18.8734V72.9515H25.0974V79.1756Z" fill="white" stroke="white" stroke-width="0.6"/>
<path d="M45.0709 68.9461H34.8414C33.7356 68.9461 32.8387 69.843 32.8387 70.9488V81.1783C32.8387 82.2841 33.7356 83.181 34.8414 83.181H45.0709C46.1766 83.181 47.0736 82.2841 47.0736 81.1783V70.9488C47.0736 69.843 46.1766 68.9461 45.0709 68.9461ZM43.0685 79.1756H36.8444V72.9515H43.0685V79.1756Z" fill="white" stroke="white" stroke-width="0.6"/>
<path d="M29.1029 89.357V89.3569C29.1025 88.2512 28.2056 87.3543 27.0998 87.3543H16.8707C15.7649 87.3543 14.868 88.2512 14.868 89.357V99.5865C14.868 100.692 15.7649 101.589 16.8707 101.589H27.1002C28.2059 101.589 29.1029 100.692 29.1029 99.5865V89.357ZM25.0974 97.5838H18.8734V91.3597H25.0974V97.5838Z" fill="white" stroke="white" stroke-width="0.6"/>
<path d="M45.0709 87.3562H34.8414C33.7356 87.3562 32.8387 88.2532 32.8387 89.359V99.5884C32.8387 100.694 33.7356 101.591 34.8414 101.591H45.0709C46.1766 101.591 47.0736 100.694 47.0736 99.5884V89.359C47.0736 88.2532 46.1766 87.3562 45.0709 87.3562ZM43.0685 97.5857H36.8444V91.3617H43.0685V97.5857Z" fill="white" stroke="white" stroke-width="0.6"/>
<path d="M29.1029 107.769V107.769C29.1025 106.663 28.2056 105.766 27.0998 105.766H16.8707C15.7649 105.766 14.868 106.663 14.868 107.769V117.999C14.868 119.104 15.7649 120.001 16.8707 120.001H27.1002C28.2059 120.001 29.1029 119.104 29.1029 117.999V107.769ZM25.0974 115.996H18.8734V109.772H25.0974V115.996Z" fill="white" stroke="white" stroke-width="0.6"/>
<path d="M45.0709 105.766H34.8414C33.7356 105.766 32.8387 106.663 32.8387 107.769V117.999C32.8387 119.104 33.7356 120.001 34.8414 120.001H45.0709C46.1766 120.001 47.0736 119.104 47.0736 117.999V107.769C47.0736 106.663 46.1766 105.766 45.0709 105.766ZM43.0685 115.996H36.8444V109.772H43.0685V115.996Z" fill="white" stroke="white" stroke-width="0.6"/>
<path d="M63.0406 68.9461H52.8111C51.7054 68.9461 50.8084 69.843 50.8084 70.9488V81.1783C50.8084 82.2841 51.7054 83.181 52.8111 83.181H63.0406C64.1464 83.181 65.0433 82.2841 65.0433 81.1783V70.9488C65.0433 69.843 64.1464 68.9461 63.0406 68.9461ZM61.0379 79.1756H54.8138V72.9515H61.0379V79.1756Z" fill="white" stroke="white" stroke-width="0.6"/>
<path d="M63.0406 87.4031H52.8111C51.7054 87.4031 50.8084 88.3001 50.8084 89.4059V117.997C50.8084 119.102 51.7054 119.999 52.8111 119.999H63.0406C64.1464 119.999 65.0433 119.102 65.0433 117.997V89.4059C65.0433 88.3001 64.1464 87.4031 63.0406 87.4031ZM61.0379 115.994H54.8138V91.4086H61.0379V115.994Z" fill="white" stroke="white" stroke-width="0.6"/>
<path d="M39.5119 53.1782L39.5119 53.1781C35.4772 53.0921 31.7172 51.4405 28.922 48.5326L28.9218 48.5324C26.1265 45.6193 24.6332 41.7911 24.7191 37.7563L39.5119 53.1782ZM39.5119 53.1782H39.5183M39.5119 53.1782H39.5183M39.5183 53.1782C39.5677 53.1782 39.6188 53.1792 39.6737 53.1804C39.7275 53.1815 39.785 53.1828 39.8421 53.1828C43.7552 53.1828 47.452 51.694 50.2878 48.9803L50.2883 48.9799M39.5183 53.1782L50.2883 48.9799M50.2883 48.9799C53.1965 46.1847 54.8481 42.4246 54.9341 38.3899L54.9341 38.3896M50.2883 48.9799L54.9341 38.3896M54.9341 38.3896C55.0154 34.3552 53.527 30.527 50.7315 27.6138L50.515 27.8215M54.9341 38.3896L50.515 27.8215M50.515 27.8215L50.7315 27.6137C47.9404 24.7053 44.1803 23.0537 40.1456 22.9677L40.1456 22.9677M50.515 27.8215L40.1456 22.9677M40.1456 22.9677L40.1401 22.9676M40.1456 22.9677L40.1401 22.9676M40.1401 22.9676C31.8431 22.9449 24.8956 29.4177 24.7191 37.7562L40.1401 22.9676ZM51.2284 38.3127C51.2908 35.2664 50.1644 32.3799 48.0582 30.1805C45.952 27.9812 43.1143 26.7351 40.0681 26.6731C40.0259 26.6731 39.9849 26.6719 39.9439 26.6708C39.9029 26.6696 39.8619 26.6685 39.8198 26.6685L51.2284 38.3127ZM51.2284 38.3127C51.1664 41.359 49.9203 44.1966 47.721 46.3028L51.2284 38.3127ZM28.7238 37.8397C28.8539 31.7954 33.8063 26.9685 39.8198 26.9685C39.857 26.9685 39.8939 26.9695 39.9355 26.9707L39.9372 26.9707C39.9762 26.9718 40.0197 26.973 40.0649 26.9731C43.0304 27.0342 45.7911 28.247 47.8415 30.388C49.8928 32.5301 50.9892 35.3398 50.9285 38.3065V38.3066C50.8681 41.2732 49.6553 44.0351 47.5135 46.0861L47.5132 46.0863C45.3771 48.1365 42.4937 49.1548 39.591 49.173C36.6259 49.1117 33.8654 47.899 31.8106 45.7579C29.7595 43.6159 28.6631 40.8063 28.7238 37.8397Z" fill="white" stroke="white" stroke-width="0.6"/>
<path d="M38.1673 45.2155C37.0044 44.9712 36.0669 44.4761 35.3924 43.7765C34.6681 43.0251 34.264 42.055 34.1986 40.9554L34.1793 40.6309L34.5043 40.6377L37.5368 40.701L37.7772 40.706L37.8246 40.9418C37.924 41.4352 38.1558 41.8258 38.4921 42.0972C38.8289 42.3691 39.2903 42.5371 39.8739 42.5494C40.6209 42.565 41.0623 42.395 41.3163 42.1721C41.5664 41.9528 41.6804 41.6422 41.688 41.2735L41.688 41.2735C41.6976 40.8154 41.5886 40.5146 41.2887 40.2475C40.9611 39.9559 40.3876 39.6879 39.4051 39.3855L39.4043 39.3853C37.5927 38.8222 36.3807 38.1857 35.628 37.4016C34.8608 36.6023 34.5967 35.6774 34.619 34.6115L34.619 34.6115C34.6663 32.3487 36.3057 30.9775 38.3228 30.5572L38.3472 29.396L38.3535 29.0961L38.6534 29.1024L41.1961 29.1555L41.4961 29.1618L41.4898 29.4618L41.4663 30.5828C42.7112 30.8435 43.5902 31.378 44.1788 32.0753C44.8042 32.8162 45.0792 33.714 45.1445 34.5943L45.1688 34.9233L44.839 34.9164L41.8039 34.8528L41.5716 34.8479L41.5182 34.6218C41.4474 34.3222 41.3606 34.0005 41.1299 33.7422C40.911 33.4969 40.5244 33.2699 39.7702 33.254L38.1673 45.2155ZM38.1673 45.2155L38.1363 46.685L38.1299 46.985L38.4299 46.9913L40.9907 47.0447L41.2906 47.051L41.2969 46.7511L41.328 45.2757M38.1673 45.2155L41.328 45.2757M41.328 45.2757C42.4373 45.095 43.3975 44.6841 44.1033 44.0129C44.8684 43.2854 45.3087 42.2763 45.3355 41M41.328 45.2757L45.3355 41M45.3355 41C45.3355 41 45.3355 41 45.3355 41L45.0355 40.9937L45.3355 41ZM45.3355 41C45.3606 39.8023 45.0626 38.8217 44.3128 38.0187C43.5749 37.2285 42.4276 36.6412 40.821 36.1567C39.6803 35.8092 39.0376 35.5415 38.68 35.2679C38.5093 35.1373 38.4143 35.0128 38.3589 34.8855C38.3025 34.7557 38.2775 34.6003 38.2818 34.3925L38.2818 34.3925M45.3355 41L38.2818 34.3925M38.2818 34.3925C38.2876 34.1178 38.3749 33.8336 38.583 33.6226M38.2818 34.3925L38.583 33.6226M38.583 33.6226C38.7865 33.4161 39.144 33.2409 39.7701 33.254L38.583 33.6226Z" fill="white" stroke="white" stroke-width="0.6"/>
</svg>
